{
    "asset" : {
        "generator" : "Khronos glTF Blender I/O v1.6.16",
        "version" : "2.0"
    },
    "scene" : 0,
    "scenes" : [
        {
            "name" : "Scene",
            "nodes" : [
                0,
                1,
                2,
                3,
                4,
                5,
                6,
                7,
                8,
                9,
                10,
                11
            ]
        }
    ],
    "nodes" : [
        {
            "mesh" : 0,
            "name" : "Cube",
            "scale" : [
                1,
                1.2854912281036377,
                1
            ]
        },
        {
            "name" : "Light",
            "rotation" : [
                0.16907575726509094,
                0.7558803558349609,
                -0.27217137813568115,
                0.570947527885437
            ],
            "translation" : [
                4.076245307922363,
                5.903861999511719,
                -1.0054539442062378
            ]
        },
        {
            "name" : "Camera",
            "rotation" : [
                0.48591843247413635,
                -0.3987317979335785,
                -0.5816655158996582,
                0.5162959098815918
            ],
            "translation" : [
                2.5254244804382324,
                1.83925461769104,
                9.698570251464844
            ]
        },
        {
            "mesh" : 1,
            "name" : "Cube.002",
            "scale" : [
                0.23648595809936523,
                0.23648595809936523,
                0.23648595809936523
            ],
            "translation" : [
                0.017096489667892456,
                0.7284654378890991,
                0.6997250318527222
            ]
        },
        {
            "mesh" : 2,
            "name" : "Cube.003",
            "scale" : [
                -0.1914348006248474,
                0.2837420403957367,
                0.21237504482269287
            ],
            "translation" : [
                -0.239350825548172,
                0.8994303345680237,
                0.5743508338928223
            ]
        },
        {
            "mesh" : 3,
            "name" : "Cube.004",
            "rotation" : [
                0,
                0,
                -0.7071067690849304,
                0.7071068286895752
            ],
            "scale" : [
                0.08137176930904388,
                0.10871613025665283,
                0.08137176930904388
            ],
            "translation" : [
                -0.239350825548172,
                1.218564748764038,
                0.5743508338928223
            ]
        },
        {
            "mesh" : 4,
            "name" : "Cube.005",
            "scale" : [
                -0.11701154708862305,
                -0.8273918032646179,
                -0.11701154708862305
            ],
            "translation" : [
                -0.3056395649909973,
                -1.3380850553512573,
                0
            ]
        },
        {
            "mesh" : 5,
            "name" : "Cube.006",
            "scale" : [
                0.2837035655975342,
                0.17627568542957306,
                0.17627568542957306
            ],
            "translation" : [
                -0.8452504277229309,
                -0.3296203315258026,
                -0.09847580641508102
            ]
        },
        {
            "mesh" : 6,
            "name" : "Cube.007",
            "scale" : [
                0.9232476353645325,
                1.1868267059326172,
                0.9232476353645325
            ],
            "translation" : [
                0,
                0,
                0.03036336600780487
            ]
        },
        {
            "mesh" : 7,
            "name" : "Cube.008",
            "scale" : [
                0.2741314172744751,
                0.3523935079574585,
                0.2741314172744751
            ],
            "translation" : [
                0,
                0,
                -0.09847578406333923
            ]
        },
        {
            "mesh" : 8,
            "name" : "Plane.005",
            "rotation" : [
                -0.6636705994606018,
                0.5568857789039612,
                0.3210204541683197,
                0.38257738947868347
            ],
            "translation" : [
                0.2644737958908081,
                0.33572694659233093,
                0.3371307849884033
            ]
        },
        {
            "mesh" : 9,
            "name" : "Plane.001",
            "rotation" : [
                -0.38528549671173096,
                0.32329297065734863,
                0.555569589138031,
                0.6621021032333374
            ],
            "translation" : [
                0.2644737958908081,
                -0.3767864406108856,
                0.4205735921859741
            ]
        }
    ],
    "materials" : [
        {
            "doubleSided" : true,
            "name" : "Material",
            "pbrMetallicRoughness" : {
                "baseColorFactor" : [
                    0.15743675827980042,
                    0.038811031728982925,
                    0.005260787904262543,
                    1
                ],
                "metallicFactor" : 0,
                "roughnessFactor" : 0.4000000059604645
            }
        },
        {
            "doubleSided" : true,
            "name" : "Material.004",
            "pbrMetallicRoughness" : {
                "baseColorTexture" : {
                    "index" : 0
                },
                "metallicFactor" : 0,
                "roughnessFactor" : 0.5
            }
        },
        {
            "doubleSided" : true,
            "name" : "green",
            "pbrMetallicRoughness" : {
                "baseColorFactor" : [
                    0,
                    0.06997966021299362,
                    0.031343866139650345,
                    1
                ],
                "metallicFactor" : 0,
                "roughnessFactor" : 0.5
            }
        },
        {
            "doubleSided" : true,
            "name" : "Material.002",
            "pbrMetallicRoughness" : {
                "baseColorFactor" : [
                    0.1025460883975029,
                    0.27741047739982605,
                    0.023249132558703423,
                    1
                ],
                "metallicFactor" : 0,
                "roughnessFactor" : 0.4000000059604645
            }
        },
        {
            "doubleSided" : true,
            "name" : "Material.003",
            "pbrMetallicRoughness" : {
                "baseColorFactor" : [
                    1,
                    0.9551065564155579,
                    0.9551065564155579,
                    1
                ],
                "metallicFactor" : 0,
                "roughnessFactor" : 0.4000000059604645
            }
        },
        {
            "doubleSided" : true,
            "name" : "black",
            "pbrMetallicRoughness" : {
                "baseColorFactor" : [
                    0,
                    0,
                    0,
                    1
                ],
                "metallicFactor" : 0,
                "roughnessFactor" : 0.5
            }
        }
    ],
    "meshes" : [
        {
            "name" : "Cube",
            "primitives" : [
                {
                    "attributes" : {
                        "POSITION" : 0,
                        "NORMAL" : 1,
                        "TEXCOORD_0" : 2
                    },
                    "indices" : 3,
                    "material" : 0
                }
            ]
        },
        {
            "name" : "Cube.002",
            "primitives" : [
                {
                    "attributes" : {
                        "POSITION" : 4,
                        "NORMAL" : 5,
                        "TEXCOORD_0" : 6
                    },
                    "indices" : 7,
                    "material" : 0
                }
            ]
        },
        {
            "name" : "Cube.003",
            "primitives" : [
                {
                    "attributes" : {
                        "POSITION" : 8,
                        "NORMAL" : 9,
                        "TEXCOORD_0" : 10
                    },
                    "indices" : 11,
                    "material" : 1
                }
            ]
        },
        {
            "name" : "Cube.004",
            "primitives" : [
                {
                    "attributes" : {
                        "POSITION" : 12,
                        "NORMAL" : 13,
                        "TEXCOORD_0" : 14
                    },
                    "indices" : 15,
                    "material" : 2
                }
            ]
        },
        {
            "name" : "Cube.005",
            "primitives" : [
                {
                    "attributes" : {
                        "POSITION" : 16,
                        "NORMAL" : 17,
                        "TEXCOORD_0" : 18
                    },
                    "indices" : 19,
                    "material" : 2
                }
            ]
        },
        {
            "name" : "Cube.006",
            "primitives" : [
                {
                    "attributes" : {
                        "POSITION" : 20,
                        "NORMAL" : 21,
                        "TEXCOORD_0" : 22
                    },
                    "indices" : 23,
                    "material" : 2
                }
            ]
        },
        {
            "name" : "Cube.007",
            "primitives" : [
                {
                    "attributes" : {
                        "POSITION" : 24,
                        "NORMAL" : 25,
                        "TEXCOORD_0" : 26
                    },
                    "indices" : 27,
                    "material" : 3
                }
            ]
        },
        {
            "name" : "Cube.008",
            "primitives" : [
                {
                    "attributes" : {
                        "POSITION" : 28,
                        "NORMAL" : 29,
                        "TEXCOORD_0" : 30
                    },
                    "indices" : 27,
                    "material" : 4
                }
            ]
        },
        {
            "name" : "Plane.013",
            "primitives" : [
                {
                    "attributes" : {
                        "POSITION" : 31,
                        "NORMAL" : 32,
                        "TEXCOORD_0" : 33
                    },
                    "indices" : 34,
                    "material" : 5
                }
            ]
        },
        {
            "name" : "Plane.014",
            "primitives" : [
                {
                    "attributes" : {
                        "POSITION" : 35,
                        "NORMAL" : 36,
                        "TEXCOORD_0" : 37
                    },
                    "indices" : 38,
                    "material" : 5
                }
            ]
        }
    ],
    "textures" : [
        {
            "sampler" : 0,
            "source" : 0
        }
    ],
    "images" : [
        {
            "bufferView" : 12,
            "mimeType" : "image/png",
            "name" : "eye"
        }
    ],
    "accessors" : [
        {
            "bufferView" : 0,
            "componentType" : 5126,
            "count" : 478,
            "max" : [
                0.8304661512374878,
                0.8395062685012817,
                0.7133113741874695
            ],
            "min" : [
                -0.8304661512374878,
                -0.8395062685012817,
                -0.8395062685012817
            ],
            "type" : "VEC3"
        },
        {
            "bufferView" : 1,
            "componentType" : 5126,
            "count" : 478,
            "type" : "VEC3"
        },
        {
            "bufferView" : 2,
            "componentType" : 5126,
            "count" : 478,
            "type" : "VEC2"
        },
        {
            "bufferView" : 3,
            "componentType" : 5123,
            "count" : 2178,
            "type" : "SCALAR"
        },
        {
            "bufferView" : 4,
            "componentType" : 5126,
            "count" : 441,
            "max" : [
                0.8395062685012817,
                0.8395062685012817,
                0.8395062685012817
            ],
            "min" : [
                -0.8395062685012817,
                -0.8395062685012817,
                -0.8395062685012817
            ],
            "type" : "VEC3"
        },
        {
            "bufferView" : 5,
            "componentType" : 5126,
            "count" : 441,
            "type" : "VEC3"
        },
        {
            "bufferView" : 6,
            "componentType" : 5126,
            "count" : 441,
            "type" : "VEC2"
        },
        {
            "bufferView" : 7,
            "componentType" : 5123,
            "count" : 2304,
            "type" : "SCALAR"
        },
        {
            "bufferView" : 8,
            "componentType" : 5126,
            "count" : 882,
            "max" : [
                0.8395062685012817,
                0.8395062685012817,
                0.8395062685012817
            ],
            "min" : [
                -3.3401055335998535,
                -0.8395062685012817,
                -0.8395062685012817
            ],
            "type" : "VEC3"
        },
        {
            "bufferView" : 9,
            "componentType" : 5126,
            "count" : 882,
            "type" : "VEC3"
        },
        {
            "bufferView" : 10,
            "componentType" : 5126,
            "count" : 882,
            "type" : "VEC2"
        },
        {
            "bufferView" : 11,
            "componentType" : 5123,
            "count" : 4608,
            "type" : "SCALAR"
        },
        {
            "bufferView" : 13,
            "componentType" : 5126,
            "count" : 1410,
            "max" : [
                0.21729235351085663,
                6.191847324371338,
                0.5510118007659912
            ],
            "min" : [
                -1.3245489597320557,
                -1.788621425628662,
                -0.5510118007659912
            ],
            "type" : "VEC3"
        },
        {
            "bufferView" : 14,
            "componentType" : 5126,
            "count" : 1410,
            "type" : "VEC3"
        },
        {
            "bufferView" : 15,
            "componentType" : 5126,
            "count" : 1410,
            "type" : "VEC2"
        },
        {
            "bufferView" : 16,
            "componentType" : 5123,
            "count" : 7680,
            "type" : "SCALAR"
        },
        {
            "bufferView" : 17,
            "componentType" : 5126,
            "count" : 3330,
            "max" : [
                3.6510989665985107,
                1.000000238418579,
                0.9115350246429443
            ],
            "min" : [
                -8.875191688537598,
                -0.9186305999755859,
                -3.641446590423584
            ],
            "type" : "VEC3"
        },
        {
            "bufferView" : 18,
            "componentType" : 5126,
            "count" : 3330,
            "type" : "VEC3"
        },
        {
            "bufferView" : 19,
            "componentType" : 5126,
            "count" : 3330,
            "type" : "VEC2"
        },
        {
            "bufferView" : 20,
            "componentType" : 5123,
            "count" : 18432,
            "type" : "SCALAR"
        },
        {
            "bufferView" : 21,
            "componentType" : 5126,
            "count" : 3810,
            "max" : [
                9.828636169433594,
                7.386977672576904,
                1.170501708984375
            ],
            "min" : [
                -3.8699491024017334,
                -0.5633137226104736,
                -1.1705002784729004
            ],
            "type" : "VEC3"
        },
        {
            "bufferView" : 22,
            "componentType" : 5126,
            "count" : 3810,
            "type" : "VEC3"
        },
        {
            "bufferView" : 23,
            "componentType" : 5126,
            "count" : 3810,
            "type" : "VEC2"
        },
        {
            "bufferView" : 24,
            "componentType" : 5123,
            "count" : 19968,
            "type" : "SCALAR"
        },
        {
            "bufferView" : 25,
            "componentType" : 5126,
            "count" : 485,
            "max" : [
                0.8297145962715149,
                0.8395062685012817,
                0.7096011638641357
            ],
            "min" : [
                -0.8297145962715149,
                -0.8395062685012817,
                -0.839506208896637
            ],
            "type" : "VEC3"
        },
        {
            "bufferView" : 26,
            "componentType" : 5126,
            "count" : 485,
            "type" : "VEC3"
        },
        {
            "bufferView" : 27,
            "componentType" : 5126,
            "count" : 485,
            "type" : "VEC2"
        },
        {
            "bufferView" : 28,
            "componentType" : 5123,
            "count" : 2136,
            "type" : "SCALAR"
        },
        {
            "bufferView" : 29,
            "componentType" : 5126,
            "count" : 485,
            "max" : [
                0.8297145962715149,
                0.8395062685012817,
                0.7096011638641357
            ],
            "min" : [
                -0.8297145962715149,
                -0.8395062685012817,
                -0.839506208896637
            ],
            "type" : "VEC3"
        },
        {
            "bufferView" : 30,
            "componentType" : 5126,
            "count" : 485,
            "type" : "VEC3"
        },
        {
            "bufferView" : 31,
            "componentType" : 5126,
            "count" : 485,
            "type" : "VEC2"
        },
        {
            "bufferView" : 32,
            "componentType" : 5126,
            "count" : 3663,
            "max" : [
                0.2503151595592499,
                0.8438635468482971,
                1.6869414309894637e-08
            ],
            "min" : [
                -0.25140076875686646,
                -0.25942298769950867,
                -1.4024502092979674e-07
            ],
            "type" : "VEC3"
        },
        {
            "bufferView" : 33,
            "componentType" : 5126,
            "count" : 3663,
            "type" : "VEC3"
        },
        {
            "bufferView" : 34,
            "componentType" : 5126,
            "count" : 3663,
            "type" : "VEC2"
        },
        {
            "bufferView" : 35,
            "componentType" : 5123,
            "count" : 7680,
            "type" : "SCALAR"
        },
        {
            "bufferView" : 36,
            "componentType" : 5126,
            "count" : 3665,
            "max" : [
                0.2503151595592499,
                0.8438636064529419,
                3.7518329776276005e-08
            ],
            "min" : [
                -0.25140079855918884,
                -0.25942298769950867,
                -7.007800206793036e-08
            ],
            "type" : "VEC3"
        },
        {
            "bufferView" : 37,
            "componentType" : 5126,
            "count" : 3665,
            "type" : "VEC3"
        },
        {
            "bufferView" : 38,
            "componentType" : 5126,
            "count" : 3665,
            "type" : "VEC2"
        },
        {
            "bufferView" : 39,
            "componentType" : 5123,
            "count" : 7680,
            "type" : "SCALAR"
        }
    ],
    "bufferViews" : [
        {
            "buffer" : 0,
            "byteLength" : 5736,
            "byteOffset" : 0
        },
        {
            "buffer" : 0,
            "byteLength" : 5736,
            "byteOffset" : 5736
        },
        {
            "buffer" : 0,
            "byteLength" : 3824,
            "byteOffset" : 11472
        },
        {
            "buffer" : 0,
            "byteLength" : 4356,
            "byteOffset" : 15296
        },
        {
            "buffer" : 0,
            "byteLength" : 5292,
            "byteOffset" : 19652
        },
        {
            "buffer" : 0,
            "byteLength" : 5292,
            "byteOffset" : 24944
        },
        {
            "buffer" : 0,
            "byteLength" : 3528,
            "byteOffset" : 30236
        },
        {
            "buffer" : 0,
            "byteLength" : 4608,
            "byteOffset" : 33764
        },
        {
            "buffer" : 0,
            "byteLength" : 10584,
            "byteOffset" : 38372
        },
        {
            "buffer" : 0,
            "byteLength" : 10584,
            "byteOffset" : 48956
        },
        {
            "buffer" : 0,
            "byteLength" : 7056,
            "byteOffset" : 59540
        },
        {
            "buffer" : 0,
            "byteLength" : 9216,
            "byteOffset" : 66596
        },
        {
            "buffer" : 0,
            "byteLength" : 23355,
            "byteOffset" : 75812
        },
        {
            "buffer" : 0,
            "byteLength" : 16920,
            "byteOffset" : 99168
        },
        {
            "buffer" : 0,
            "byteLength" : 16920,
            "byteOffset" : 116088
        },
        {
            "buffer" : 0,
            "byteLength" : 11280,
            "byteOffset" : 133008
        },
        {
            "buffer" : 0,
            "byteLength" : 15360,
            "byteOffset" : 144288
        },
        {
            "buffer" : 0,
            "byteLength" : 39960,
            "byteOffset" : 159648
        },
        {
            "buffer" : 0,
            "byteLength" : 39960,
            "byteOffset" : 199608
        },
        {
            "buffer" : 0,
            "byteLength" : 26640,
            "byteOffset" : 239568
        },
        {
            "buffer" : 0,
            "byteLength" : 36864,
            "byteOffset" : 266208
        },
        {
            "buffer" : 0,
            "byteLength" : 45720,
            "byteOffset" : 303072
        },
        {
            "buffer" : 0,
            "byteLength" : 45720,
            "byteOffset" : 348792
        },
        {
            "buffer" : 0,
            "byteLength" : 30480,
            "byteOffset" : 394512
        },
        {
            "buffer" : 0,
            "byteLength" : 39936,
            "byteOffset" : 424992
        },
        {
            "buffer" : 0,
            "byteLength" : 5820,
            "byteOffset" : 464928
        },
        {
            "buffer" : 0,
            "byteLength" : 5820,
            "byteOffset" : 470748
        },
        {
            "buffer" : 0,
            "byteLength" : 3880,
            "byteOffset" : 476568
        },
        {
            "buffer" : 0,
            "byteLength" : 4272,
            "byteOffset" : 480448
        },
        {
            "buffer" : 0,
            "byteLength" : 5820,
            "byteOffset" : 484720
        },
        {
            "buffer" : 0,
            "byteLength" : 5820,
            "byteOffset" : 490540
        },
        {
            "buffer" : 0,
            "byteLength" : 3880,
            "byteOffset" : 496360
        },
        {
            "buffer" : 0,
            "byteLength" : 43956,
            "byteOffset" : 500240
        },
        {
            "buffer" : 0,
            "byteLength" : 43956,
            "byteOffset" : 544196
        },
        {
            "buffer" : 0,
            "byteLength" : 29304,
            "byteOffset" : 588152
        },
        {
            "buffer" : 0,
            "byteLength" : 15360,
            "byteOffset" : 617456
        },
        {
            "buffer" : 0,
            "byteLength" : 43980,
            "byteOffset" : 632816
        },
        {
            "buffer" : 0,
            "byteLength" : 43980,
            "byteOffset" : 676796
        },
        {
            "buffer" : 0,
            "byteLength" : 29320,
            "byteOffset" : 720776
        },
        {
            "buffer" : 0,
            "byteLength" : 15360,
            "byteOffset" : 750096
        }
    ],
    "samplers" : [
        {
            "magFilter" : 9729,
            "minFilter" : 9987
        }
    ],
    "buffers" : [
        {
            "byteLength" : 765456,
            "uri" : "data:application/octet-stream;base64,"
        }
    ]
}
